<?xml version="1.0" encoding="UTF-8" standalone="no"?>
<!DOCTYPE svg PUBLIC "-//W3C//DTD SVG 1.1//EN" "http://www.w3.org/Graphics/SVG/1.1/DTD/svg11.dtd">
<svg width="100%" height="100%" viewBox="0 0 2000 2000" version="1.1" xmlns="http://www.w3.org/2000/svg" xmlns:xlink="http://www.w3.org/1999/xlink" xml:space="preserve" xmlns:serif="http://www.serif.com/" style="fill-rule:evenodd;clip-rule:evenodd;stroke-linejoin:round;stroke-miterlimit:2;">
    <path d="M2000,394.907L2000,1605.093C2000,1823.048 1823.048,2000 1605.093,2000L394.907,2000C176.952,2000 0,1823.048 0,1605.093L0,394.907C0,176.952 176.952,0 394.907,0L1605.093,0C1823.048,0 2000,176.952 2000,394.907Z" style="fill:rgb(52,52,52);"/>
    <g transform="matrix(1,0,0,1,-86.742342,-74.999932)">
        <g transform="matrix(1.206843,0,0,1.217762,-117.739247,-110.626942)">
            <path d="M473.462,743.595C508.961,413.892 860.053,352.341 1052.524,319.819C1230.994,309.589 1604.903,286.77 1593.995,639.541C1586.491,882.196 1275.145,1480.434 1041.019,1625.205C997.737,1651.969 968.856,1654.955 957.132,1655.529C851.68,1660.685 727.521,1505.229 629.801,1308.417C528.506,1104.404 460.35,865.371 473.462,743.595Z" style="fill:rgb(104,154,157);"/>
        </g>
    </g>
    <path d="M674.318,1796.681L674.318,659.008C674.318,612.547 692.775,567.988 725.628,535.135C758.482,502.281 803.04,483.825 849.502,483.825L1190.391,483.825C1344.809,483.825 1469.989,609.005 1469.989,763.423C1469.989,916.611 1345.806,1040.794 1192.619,1040.794L1072.154,1040.794C922.394,1040.794 800.301,1159.252 794.461,1307.58L794.461,1796.681L674.318,1796.681Z" style="fill:rgb(52,52,52);"/>
</svg>
